Coordinates
version=1
nRows=13
nColumns=34
inDegrees=yes

Units are S.I. units (second, meters, Newtons, ...)
If the header above contains a line with 'inDegrees', this indicates whether rotational values are in degrees (yes) or radians (no).

endheader
time	pelvis_tilt	pelvis_list	pelvis_rotation	pelvis_tx	pelvis_ty	pelvis_tz	hip_flexion_r	hip_adduction_r	hip_rotation_r	knee_angle_r	ankle_angle_r	subtalar_angle_r	mtp_angle_r	hip_flexion_l	hip_adduction_l	hip_rotation_l	knee_angle_l	ankle_angle_l	subtalar_angle_l	mtp_angle_l	lumbar_extension	lumbar_bending	lumbar_rotation	arm_flex_r	arm_add_r	arm_rot_r	elbow_flex_r	pro_sup_r	arm_flex_l	arm_add_l	arm_rot_l	elbow_flex_l	pro_sup_l
      5.01666670	     -3.94742973	     -5.02849488	     -1.44324628	      0.03590191	      0.83736477	     -0.16707526	     15.92129497	      0.26853765	     -4.90483597	     12.32390135	      3.40113383	     -4.37283821	      0.00000000	      1.38226181	      0.64156368	      4.92805718	      2.35237407	      7.34783550	     -1.68807876	      0.00000000	     -3.40952213	      1.31348474	      0.91609353	     55.19752464	     15.86470866	     64.86011183	    130.71450210	    103.84227154	     42.63709361	     13.95232933	     65.58014633	    134.78574445	     86.29148926
      5.03333330	     -3.54615613	     -5.46435156	     -1.08717482	      0.03563126	      0.84109454	     -0.16792828	     16.15074641	      0.80768145	     -5.37667400	     11.45390148	      2.50565555	     -4.77057634	      0.00000000	      0.92294757	      0.18107246	      5.09136587	      2.32772745	      6.95127431	     -1.17154174	      0.00000000	     -3.84533620	      1.81976640	      0.01611531	     55.28560584	     15.99207453	     65.24542887	    130.18396994	    103.79691421	     42.52077087	     13.12197872	     65.03448359	    134.42470915	     86.05501847
      5.05000000	     -3.35649736	     -5.47525488	     -1.15107466	      0.03659627	      0.83936618	     -0.16836760	     16.82864920	      0.93238985	     -5.45507930	     11.03677453	      2.46595252	     -4.77609879	      0.00000000	      0.75985007	      0.23684987	      5.13081696	      2.40776503	      6.92810055	     -1.14337079	      0.00000000	     -4.14911574	      1.82131773	     -0.00527126	     55.26663323	     15.92353175	     65.23934357	    130.14527414	    103.79402553	     42.50369166	     13.07367800	     65.00568681	    134.41217781	     86.04726079
      5.06666670	     -3.15502260	     -5.53580701	     -1.18347821	      0.03827373	      0.83872044	     -0.16776558	     17.44904317	      1.12713552	     -5.54355749	     10.63143806	      2.30257178	     -4.73705828	      0.00000000	      0.56101850	      0.16957500	      5.17853196	      2.68087666	      6.86393351	     -1.12159422	      0.00000000	     -4.48962686	      1.70604381	      0.03533584	     55.18230141	     15.91683974	     65.27987665	    130.11531877	    103.79284829	     42.48452909	     12.86754190	     64.88416870	    134.33039601	     86.03404408
      5.08333330	     -2.49740357	     -5.84466819	     -0.97626138	      0.03666695	      0.84259598	     -0.16864650	     17.27483356	      1.50900226	     -5.83185325	      9.68843672	      0.66396358	     -4.67819251	      0.00000000	      0.16388409	     -0.08029575	      5.45071073	      3.40588325	      6.76690844	     -1.49911647	      0.00000000	     -5.13035674	      2.09296195	     -0.45929804	     55.13032776	     16.11707531	     65.82268560	    130.01052017	    103.77690955	     42.30396569	     12.16501455	     62.77959410	    133.51992119	     85.82091592
      5.10000000	     -2.07910151	     -5.95432115	     -0.93738520	      0.03620077	      0.84029428	     -0.16904550	     17.62856750	      1.70649948	     -5.81674637	      9.13684731	      0.13711350	     -4.61132577	      0.00000000	      0.14594320	     -0.13163718	      5.50953491	      4.27571560	      7.00278691	     -2.02027314	      0.00000000	     -5.68237286	      2.15154886	     -0.43152172	     55.33909412	     16.20507826	     65.79007971	    129.92025973	    103.74523449	     42.13583478	     12.06891203	     62.31260362	    133.57891292	     85.76840088
      5.11666670	     -1.64720788	     -6.15356633	     -0.86923945	      0.03515986	      0.84092155	     -0.16929993	     18.06584214	      1.95087689	     -5.79702928	      8.88005974	     -0.39736378	     -4.93144502	      0.00000000	      0.30582587	     -0.22667335	      6.06958215	      5.44552794	      7.09739634	     -2.73565696	      0.00000000	     -6.38890725	      2.44696131	     -0.47634852	     55.68168697	     16.25379599	     65.86868252	    129.79838950	    103.69321445	     41.82870964	     12.25599816	     61.95802675	    133.56915272	     85.74479735
      5.13333330	     -1.20131945	     -6.30956454	     -0.94173354	      0.03663542	      0.84034859	     -0.16906700	     18.45802008	      2.16974700	     -5.77770998	      8.53603153	     -0.74582306	     -5.07780795	      0.00000000	      0.57046912	     -0.30326169	      6.14617499	      6.86493944	      7.42385108	     -3.37507850	      0.00000000	     -6.98904916	      2.55583871	     -0.36649332	     55.84459868	     16.36475005	     65.90236248	    129.68546694	    103.66247338	     41.24292996	     12.76235261	     62.46694467	    133.92809998	     85.78987442
      5.15000000	     -0.77016710	     -6.62054321	     -0.90071650	      0.03839300	      0.84015255	     -0.16936167	     18.88840467	      2.49678343	     -5.60352926	      8.38018869	     -1.19078613	     -5.54938064	      0.00000000	      0.90705576	     -0.50824528	      6.80997833	      8.43350376	      8.03598080	     -4.20420345	      0.00000000	     -7.59652658	      2.92836959	     -0.33422256	     55.97458063	     16.45037262	     66.26902161	    129.75937223	    103.63095951	     40.86499320	     12.97761709	     63.41995839	    134.86213615	     85.93913706
      5.16666670	     -0.25743779	     -6.91190218	     -1.01469344	      0.03863442	      0.83840451	     -0.17035299	     19.33795422	      2.81636916	     -5.54095291	      8.53860938	     -1.43025204	     -5.96172270	      0.00000000	      1.28609043	     -0.70429738	      6.85780760	     10.26265817	      8.70010166	     -5.00143914	      0.00000000	     -8.30594481	      3.23610260	     -0.36365683	     56.08685320	     16.49562708	     66.41799102	    129.84969910	    103.62277543	     40.78894097	     13.13026883	     63.62094262	    135.05414189	     86.03680292
      5.18333330	      0.16789238	     -7.12382811	     -0.98233901	      0.03849501	      0.84024435	     -0.17069439	     19.88314126	      3.02418778	     -5.30442076	      8.73411375	     -2.24236572	     -7.08786638	      0.00000000	      1.89870681	     -0.76810656	      7.35561913	     12.28875922	      9.08840533	     -6.11867792	      0.00000000	     -8.95026129	      3.47123753	     -0.51790547	     56.13541678	     16.45413022	     67.06001533	    129.97351970	    103.63908538	     40.59485759	     13.14254217	     64.75021448	    135.90324600	     86.42678211
      5.20000000	      0.77705403	     -7.27208138	     -1.14275242	      0.03992395	      0.84064051	     -0.17002125	     20.08240364	      3.16495597	     -5.26912686	      8.45672613	     -2.99968944	     -7.11924948	      0.00000000	      2.21139890	     -0.83700895	      7.26945685	     14.19338195	      9.81376015	     -6.79123523	      0.00000000	     -9.58781656	      3.57727020	     -0.48313263	     55.99215644	     16.61561947	     67.30200842	    129.89604578	    103.64709484	     40.20459480	     13.53576130	     65.38169065	    135.84345377	     86.54340619
      5.21666670	      1.28714884	     -7.40234368	     -1.25088403	      0.04319351	      0.83712881	     -0.17128859	     20.25884697	      3.22461366	     -5.27293825	      7.72889754	     -3.92305184	     -7.24914631	      0.00000000	      2.44311270	     -0.78380109	      7.71672118	     15.76583711	     10.79365839	     -7.38423631	      0.00000000	    -10.14030811	      3.72560122	     -0.58317056	     55.83538471	     16.68581245	     67.71207400	    129.92011656	    103.66451215	     40.27668091	     13.84043111	     66.15238418	    135.66978999	     86.68341310
